<svg width="22" height="19" viewBox="0 0 22 19" fill="none" xmlns="http://www.w3.org/2000/svg">
<path fill-rule="evenodd" clip-rule="evenodd" d="M14 9.91252V15C14 15.3788 13.786 15.725 13.4472 15.8944L9.44722 17.8944C8.78232 18.2269 8 17.7434 8 17V9.91252L1.22605 1.63324C0.691831 0.980307 1.15638 0 2 0H20C20.8436 0 21.3082 0.980307 20.774 1.63324L14 9.91252ZM12 14.382V9.55556C12 9.32471 12.0799 9.10098 12.226 8.92232L17.8898 2H4.11025L9.77396 8.92232C9.92014 9.10098 10 9.32471 10 9.55556V15.382L12 14.382Z" fill="#92929D"/>
</svg>
